Coordinates
version=1
nRows=14
nColumns=40
inDegrees=yes

Units are S.I. units (second, meters, Newtons, ...)
Angles are in degrees.

endheader
time	pelvis_tilt	pelvis_list	pelvis_rotation	pelvis_tx	pelvis_ty	pelvis_tz	hip_flexion_r	hip_adduction_r	hip_rotation_r	knee_angle_r	knee_angle_r_beta	ankle_angle_r	subtalar_angle_r	mtp_angle_r	hip_flexion_l	hip_adduction_l	hip_rotation_l	knee_angle_l	knee_angle_l_beta	ankle_angle_l	subtalar_angle_l	mtp_angle_l	lumbar_extension	lumbar_bending	lumbar_rotation	arm_flex_r	arm_add_r	arm_rot_r	elbow_flex_r	pro_sup_r	wrist_flex_r	wrist_dev_r	arm_flex_l	arm_add_l	arm_rot_l	elbow_flex_l	pro_sup_l	wrist_flex_l	wrist_dev_l
     29.73750000	     -1.09474561	     -5.89734905	     -1.48607065	      1.01963362	      0.92621912	      0.57888476	     10.93556338	      7.24508774	    -11.92038967	     21.69983528	     21.69983528	     13.22824021	     -6.82476157	     -2.53804446	     26.80831092	    -15.31846545	      1.15732187	     64.17444931	     64.17444931	     13.54137915	    -19.63581514	     22.70751151	    -10.16980853	      6.77164393	      0.71751306	     18.63059043	    -18.41203945	    -14.43722831	     49.67542541	     45.80897445	      0.00000000	      0.00000000	      4.81220259	     -8.23456294	     -2.17373661	     29.75511253	     46.11989448	      0.00000000	      0.00000000
     29.75585714	     -0.94954833	     -5.73912794	     -0.91679756	      1.01872803	      0.92663786	      0.57982271	     10.35060639	      7.18285823	    -12.08325935	     21.46010480	     21.46010480	     13.51458541	     -7.11218990	     -2.27680595	     27.83918314	    -14.96872419	      1.21880990	     62.01396402	     62.01396402	     14.43107603	    -19.63819563	     23.24349118	    -10.22191272	      6.45323789	      0.29833179	     20.96200889	    -17.89231608	    -14.42628862	     51.55002025	     45.75017902	      0.00000000	      0.00000000	      2.86948926	     -8.14746983	     -1.54062593	     27.78929481	     45.99066981	      0.00000000	      0.00000000
     29.77421429	     -0.95069672	     -5.51313999	     -0.37330703	      1.01771722	      0.92704189	      0.58038087	      9.87982150	      7.01188997	    -12.32574106	     21.14090563	     21.14090563	     13.77103365	     -7.16918492	     -2.10006322	     28.77890653	    -14.40179880	      1.25943370	     59.27835363	     59.27835363	     14.92257233	    -19.61747722	     23.31699218	    -10.11331547	      6.09187306	      0.54514616	     22.91012265	    -18.01232943	    -14.43532088	     53.05568980	     45.70541933	      0.00000000	      0.00000000	      1.10383568	     -7.88313490	     -1.03733678	     26.47423177	     45.87790964	      0.00000000	      0.00000000
     29.79257143	     -0.99735762	     -5.24156939	      0.14291667	      1.01654587	      0.92758129	      0.58061160	      9.40230184	      6.76463086	    -12.65821805	     20.70508856	     20.70508856	     13.97573506	     -7.06940826	     -1.97340058	     29.50067859	    -13.64505787	      1.35129733	     56.03645726	     56.03645726	     14.99607402	    -19.57797050	     23.04188063	     -9.96847350	      5.71899124	      0.77558532	     24.86247289	    -18.16175702	    -14.42365095	     54.69570541	     45.65562703	      0.00000000	      0.00000000	     -0.65643841	     -7.66354618	     -0.60662962	     25.44817242	     45.77254481	      0.00000000	      0.00000000
     29.81092857	     -1.09145022	     -4.90747160	      0.68177861	      1.01531615	      0.92821247	      0.58046424	      8.89704211	      6.43040595	    -13.07700782	     20.12912305	     20.12912305	     14.19660535	     -6.85677489	     -1.91711173	     30.02412583	    -12.69959301	      1.51603550	     52.38682700	     52.38682700	     14.62408705	    -19.48409948	     22.52370695	     -9.74280763	      5.35679674	      1.05196640	     26.82575680	    -18.31906385	    -14.37525934	     56.42694106	     45.60182420	      0.00000000	      0.00000000	     -2.41186334	     -7.50084821	     -0.26431947	     24.69130209	     45.67852248	      0.00000000	      0.00000000
     29.82928571	     -1.23934301	     -4.69552875	      1.20674194	      1.01399814	      0.92879744	      0.58014903	      8.38042248	      6.16732452	    -13.82178938	     19.43267639	     19.43267639	     14.25134033	     -6.00622211	     -2.01060570	     30.36399730	    -11.82719778	      1.83690785	     48.41732200	     48.41732200	     13.50810752	    -19.36753056	     20.19670256	     -9.60364020	      5.09524935	      0.99477838	     28.70669314	    -18.46516083	    -13.99007598	     59.25606872	     45.49697510	      0.00000000	      0.00000000	     -4.29650806	     -7.41264574	      0.49614257	     24.43850163	     45.49663145	      0.00000000	      0.00000000
     29.84764286	     -1.55448390	     -4.39223851	      1.67350077	      1.01247774	      0.92917370	      0.57955201	      8.13520417	      5.86211356	    -14.08119926	     18.86276125	     18.86276125	     14.29250406	     -5.97639668	     -1.95851904	     30.78353019	    -10.76883574	      2.34245266	     44.50327695	     44.50327695	     12.95154185	    -19.08262542	     20.28648779	     -9.16232193	      4.75407313	      1.66611700	     30.63461413	    -19.16781124	    -14.08865091	     60.36293753	     45.47308063	      0.00000000	      0.00000000	     -5.68004620	     -7.20633728	      0.60645189	     24.08160031	     45.44982286	      0.00000000	      0.00000000
     29.86600000	     -1.51280926	     -4.10591929	      2.15143160	      1.01138316	      0.93009653	      0.57885628	      7.22732719	      5.50831361	    -15.01665994	     17.87703200	     17.87703200	     14.23070962	     -4.66086668	     -2.74185903	     30.27833891	     -9.92667533	      2.54958868	     39.90276498	     39.90276498	     10.18658050	    -18.74098142	     14.38429463	     -9.25460092	      4.43677124	      1.73312214	     32.06262219	    -19.47086595	    -13.10223809	     64.18688398	     45.32062390	      0.00000000	      0.00000000	     -7.86732365	     -7.46365405	      1.80606355	     25.44571539	     45.17295300	      0.00000000	      0.00000000
     29.88435714	     -1.62446186	     -3.93731676	      2.60165315	      1.01019704	      0.93064491	      0.57805683	      6.49692499	      5.37917122	    -15.53345763	     16.84967126	     16.84967126	     14.05258746	     -4.10470477	     -3.26428628	     30.00605088	     -9.21132683	      2.94784896	     35.72786211	     35.72786211	      8.46670654	    -17.99166318	     11.36687477	     -9.07728657	      4.26362444	      1.95582003	     33.98247411	    -19.72148222	    -12.80007542	     66.23233042	     45.26629849	      0.00000000	      0.00000000	     -9.53832302	     -7.60111215	      3.24247795	     25.95633615	     44.91172764	      0.00000000	      0.00000000
     29.90271429	     -1.73612904	     -3.81648213	      3.00274672	      1.00908045	      0.93100691	      0.57719479	      5.77906171	      5.28679518	    -16.09276404	     15.86889297	     15.86889297	     13.93863598	     -3.34785171	     -3.77583268	     29.72574990	     -8.68953336	      3.14111102	     31.94802351	     31.94802351	      7.43693649	    -16.56481952	      9.62917504	     -8.89455052	      4.14097219	      2.22682766	     35.83911632	    -20.04813767	    -12.36019979	     68.45701133	     45.20434151	      0.00000000	      0.00000000	    -11.06976897	     -7.74905126	      4.25868140	     26.67587968	     44.75022601	      0.00000000	      0.00000000
     29.92107143	     -1.84194071	     -3.78241913	      3.40068877	      1.00807421	      0.93122111	      0.57629941	      5.09798234	      5.32926607	    -16.45843272	     14.96238868	     14.96238868	     13.92535228	     -2.98797970	     -3.75101454	     29.48035120	     -8.35074063	      3.18883748	     28.67944966	     28.67944966	      7.30797998	    -14.57460510	      9.82302392	     -8.65803339	      4.07137234	      2.46199615	     37.81878158	    -20.15729126	    -12.30907125	     69.84113936	     45.16807704	      0.00000000	      0.00000000	    -12.16750392	     -7.70368240	      4.40433946	     26.47444224	     44.71457551	      0.00000000	      0.00000000
     29.93942857	     -1.85774857	     -3.84481794	      3.77192789	      1.00727815	      0.93132393	      0.57533948	      4.25791470	      5.47735009	    -16.96379428	     13.96433939	     13.96433939	     13.90924072	     -2.28894155	     -3.88738200	     29.12559247	     -8.23643030	      2.92037698	     25.81909957	     25.81909957	      7.22122375	    -12.35673255	      9.71790767	     -8.55711021	      4.13571485	      2.55327310	     39.74857438	    -20.14475938	    -12.00973671	     71.67199560	     45.10922030	      0.00000000	      0.00000000	    -13.30164613	     -7.66396059	      4.54158010	     26.61707652	     44.67889693	      0.00000000	      0.00000000
     29.95778571	     -1.87988304	     -4.06035848	      4.13416377	      1.00671402	      0.93102975	      0.57436893	      3.45469018	      5.76862980	    -17.64283558	     13.02029941	     13.02029941	     13.75174127	     -1.36669513	     -4.53263311	     28.85999906	     -8.36880649	      2.37565011	     23.52319510	     23.52319510	      6.92458665	    -10.15264488	      8.72355525	     -8.44080192	      4.36659954	      2.71018759	     41.34741956	    -20.45649818	    -11.15904091	     74.23786741	     45.01897446	      0.00000000	      0.00000000	    -14.66721198	     -7.76037284	      4.87311659	     27.98272926	     44.62356834	      0.00000000	      0.00000000
     29.97614286	     -1.96658627	     -4.18504310	      4.41000583	      1.00622633	      0.93051807	      0.57330980	      2.93952346	      5.94334166	    -17.85140630	     12.52392300	     12.52392300	     13.90883450	     -1.14817556	     -4.65859731	     28.49871941	     -8.34714860	      1.96630023	     21.45023194	     21.45023194	      6.77531699	     -8.80213886	      8.83546535	     -8.17705960	      4.45599717	      2.96295112	     43.07602341	    -20.46557027	    -11.02499473	     75.44310495	     44.98617867	      0.00000000	      0.00000000	    -15.30048948	     -7.69489458	      4.99314546	     28.08874477	     44.60112652	      0.00000000	      0.00000000
